<svg width="298" height="345" viewBox="0 0 298 345" fill="none" xmlns="http://www.w3.org/2000/svg">
<mask id="mask0_319_191" style="mask-type:luminance" maskUnits="userSpaceOnUse" x="0" y="0" width="298" height="345">
<path d="M0 0H298V345H0V0Z" fill="white"/>
</mask>
<g mask="url(#mask0_319_191)">
<path fill-rule="evenodd" clip-rule="evenodd" d="M47.7447 118.969V130.865H23.9166V142.755H11.9999V190.344H0.083252V202.24H11.9999V214.136H35.828V273.62H23.9166V285.516H11.9999V297.412H23.9166V309.307H59.6562V321.203H71.5676V333.099H83.4843V344.995H107.307V333.099H178.797V344.995H250.281V333.099H262.193V321.203H286.021V309.307H297.932V273.62H286.021V237.927H274.104V178.443H286.021V71.3804H297.932V23.797H286.021V11.896H274.104V0.00537109H250.281V11.896H238.365V23.797H202.625V11.896H119.229V0.00537109H71.5676V11.896H59.6562V23.797H47.7447V59.4845H59.6562V118.969H47.7447Z" fill="black"/>
<path fill-rule="evenodd" clip-rule="evenodd" d="M59.6563 118.969H47.7448V142.761H35.8333V130.865H23.9167V142.761H12.0052V166.547H23.9167V178.443H12.0052V190.339H0.09375V202.235H12.0052V214.125H23.9167V202.235H47.7448V214.125H35.8333V249.813H47.7448V261.709H35.8333V273.604H23.9167V285.495H12.0052V297.391H23.9167V309.287H47.7448V297.391H59.6563V321.182H71.5677V333.078H83.4792V344.969H107.307V333.078H178.781V344.969H250.255V333.078H262.167V321.182H285.99V309.287H297.906V273.604H285.99V237.917H274.078V178.443H285.99V71.3856H297.906V23.8075H285.99V11.9116H274.078V0.0209961H250.255V11.9116H238.344V23.8075H202.604V11.9116H143.042V23.8075H131.13V11.9116H119.219V0.0209961H71.5677V11.9116H59.6563V23.8075H47.7448V59.495H59.6563V118.969ZM107.307 333.104H83.4844V321.209H71.5729V285.526H83.4844V273.63H95.401V309.313H107.313V333.104H107.307ZM83.4792 273.62H71.5677V261.729H83.4792V273.62ZM71.5677 285.516H59.6563V273.62H71.5677V285.516ZM95.3958 190.344V202.24H83.4844V166.557H95.3958V190.344ZM95.3958 202.24H107.307V214.136H95.3958V202.24ZM107.307 202.24V178.453H119.224V166.557H143.047V178.453H131.135V190.344H119.224V202.24H107.307ZM47.7396 178.443V190.339H23.9167V178.443H47.7396ZM59.651 178.443H47.7396V166.552H59.651V178.443ZM71.5625 202.24H83.4792V237.927H71.5625V249.818H47.7396V214.136H71.5625V202.24ZM47.7344 166.552H23.9115V142.761H35.8229V154.656H47.7344V166.552ZM23.9063 202.24H11.9948V190.344H23.9063V202.24ZM166.87 166.552H178.786V154.656H154.958V142.761H166.87V130.87H131.135V142.761H143.047V154.656H119.224V166.552H107.307V154.656H83.4844V166.552H59.6615V118.974H71.5729V71.396H83.4844V59.5002H95.401V47.6043H107.313V35.7085H143.047V23.8127H202.609V35.7085H238.349V47.6043H250.26V71.396H262.172V83.2866H274.083V178.448H262.172V190.344H226.438V202.235H131.135V190.344H143.047V178.448H154.964V166.552H166.87ZM190.698 273.62H178.786V261.724H166.875V249.828H178.786V237.932H202.615V226.037H214.526V214.146H226.438V202.25H262.177V249.828H250.26V261.724H226.438V273.62H190.698ZM166.87 273.62V285.511H178.786V297.406H166.87V321.198H119.224V309.302H107.307V214.146H119.224V202.25H131.135V214.146H202.609V226.037H178.786V237.932H166.87V249.828H154.958V273.62H166.87ZM274.094 309.307V285.516H286.01V309.307H274.094ZM274.094 285.511H262.182V273.62H250.271V261.724H262.182V249.828H274.094V285.511ZM214.526 297.406H202.615V285.511H214.526V297.406ZM202.615 297.406V309.302H214.526V297.406H226.438V321.193H214.526V333.089H178.786V297.406H202.615ZM226.443 333.094V321.203H238.354V297.412H226.443V273.62H250.266V285.516H262.177V321.203H250.266V333.094H226.443ZM95.3906 249.818H83.4792V237.922H95.3906V249.818ZM59.6458 273.61H47.7344V261.719H59.6458V273.61ZM47.7344 285.505V297.401H23.9115V285.505H35.8229V273.61H47.7344V285.505ZM238.359 35.6825V23.7866H250.271V11.896H274.094V23.7866H286.01V71.37H262.182V47.5783H250.271V35.6825H238.359ZM71.5625 59.4793H59.651V23.7918H71.5625V11.896H119.214V23.7918H107.302V35.6877H95.3906V47.5835H83.4792V59.4793H71.5625Z" fill="black"/>
</g>
<path fill-rule="evenodd" clip-rule="evenodd" d="M95.396 118.969V130.865H119.224V107.073H95.396V118.969ZM214.542 130.865V118.969H202.625V107.073H190.714V142.76H214.542V130.865Z" fill="black"/>
<path fill-rule="evenodd" clip-rule="evenodd" d="M250.281 35.6927V47.5885H262.193V59.4792H274.104V35.6927H250.281ZM95.3958 35.6927H107.307V23.7969H83.4844V47.5885H95.3958V35.6927Z" fill="black"/>
<path fill-rule="evenodd" clip-rule="evenodd" d="M95.396 130.865V107.073H119.224V130.865H95.396ZM190.708 130.865V107.073H202.625V118.969H214.537V142.76H190.708V130.865ZM178.797 118.969V142.76H190.708V154.651H238.36V107.073H226.448V95.1771H214.537V83.2812H202.625V95.1771H178.797V118.969ZM107.318 142.76H119.229V130.87H131.141V95.1823H119.229V83.2865H95.4012V95.1823H83.4897V142.76H107.318Z" fill="#383530"/>
<path fill-rule="evenodd" clip-rule="evenodd" d="M131.141 190.344V202.24H226.453V190.344H262.193V178.443H274.104V154.656H262.193V178.443H226.453V190.344H131.141Z" fill="#DED6C1"/>
<path fill-rule="evenodd" clip-rule="evenodd" d="M119.229 297.411H107.307V309.307H119.229V321.203H166.88V309.307H119.229V297.411Z" fill="#DED6C1"/>
<path fill-rule="evenodd" clip-rule="evenodd" d="M250.281 261.724V273.62H262.193V285.516H274.104V249.828H262.193V261.724H250.281Z" fill="#DED6C1"/>
<path fill-rule="evenodd" clip-rule="evenodd" d="M274.104 285.516H286.021V309.307H274.104V285.516Z" fill="#383530"/>
<path fill-rule="evenodd" clip-rule="evenodd" d="M262.193 309.307V285.516H250.281V273.62H226.453V297.412H238.365V321.203H226.453V333.099H250.281V321.203H262.193V309.307Z" fill="#383530"/>
<path fill-rule="evenodd" clip-rule="evenodd" d="M226.453 321.203V297.411H214.542V309.307H202.625V297.411H178.797V333.099H214.542V321.203H226.453Z" fill="#383530"/>
<path fill-rule="evenodd" clip-rule="evenodd" d="M202.625 285.516H214.542V297.411H202.625V285.516Z" fill="#383530"/>
<path fill-rule="evenodd" clip-rule="evenodd" d="M226.453 261.724H250.281V249.828H262.193V202.24H226.453V214.135H214.542V226.036H202.625V237.927H178.797V249.828H166.88V261.724H178.797V273.62H226.453V261.724Z" fill="#383530"/>
<path fill-rule="evenodd" clip-rule="evenodd" d="M95.396 309.307V273.62H83.4845V285.516H71.5679V321.203H83.4845V333.099H107.307V309.307H95.396Z" fill="#383530"/>
<path fill-rule="evenodd" clip-rule="evenodd" d="M59.6561 249.828H71.5675V237.927H83.4842V202.24H71.5675V214.135H47.7446V249.828H59.6561Z" fill="#383530"/>
<path fill-rule="evenodd" clip-rule="evenodd" d="M83.4844 237.927H95.3958V249.828H83.4844V237.927Z" fill="#383530"/>
<path fill-rule="evenodd" clip-rule="evenodd" d="M95.3958 23.7968H119.229V11.8958H71.5677V23.7968H59.6562V59.4843H83.4844V23.7968H95.3958Z" fill="#383530"/>
<path fill-rule="evenodd" clip-rule="evenodd" d="M238.365 23.7968V35.6926H274.104V59.4843H262.193V71.3801H286.021V23.7968H274.104V11.8958H250.281V23.7968H238.365Z" fill="#383530"/>
<path fill-rule="evenodd" clip-rule="evenodd" d="M47.7446 273.62H35.828V285.516H23.9165V297.412H47.7446V273.62Z" fill="#608537"/>
<path fill-rule="evenodd" clip-rule="evenodd" d="M47.7446 261.724H59.6561V273.62H47.7446V261.724Z" fill="#608537"/>
<path fill-rule="evenodd" clip-rule="evenodd" d="M83.4844 190.344V202.24H95.3958V166.552H83.4844V190.344Z" fill="#608537"/>
<path fill-rule="evenodd" clip-rule="evenodd" d="M95.396 202.24H107.307V214.135H95.396V202.24Z" fill="#608537"/>
<path fill-rule="evenodd" clip-rule="evenodd" d="M107.307 190.344V202.24H119.229V190.344H131.14V178.443H143.052V166.552H119.229V178.443H107.307V190.344Z" fill="#608537"/>
<path fill-rule="evenodd" clip-rule="evenodd" d="M23.9165 178.443H47.7446V190.344H23.9165V178.443Z" fill="#608537"/>
<path fill-rule="evenodd" clip-rule="evenodd" d="M12 190.344H23.9167V202.24H12V190.344Z" fill="#608537"/>
<path fill-rule="evenodd" clip-rule="evenodd" d="M47.7446 166.552H59.6561V178.443H47.7446V166.552Z" fill="#608537"/>
<path fill-rule="evenodd" clip-rule="evenodd" d="M35.828 166.552H47.7446V154.656H35.828V142.755H23.9165V166.552H35.828Z" fill="#608537"/>
<path fill-rule="evenodd" clip-rule="evenodd" d="M107.307 237.927V297.411H119.229V309.307H166.88V297.411H178.797V285.516H166.88V273.62H154.969V249.828H166.88V237.927H178.797V226.036H107.307V237.927Z" fill="#FFF9E9"/>
<path fill-rule="evenodd" clip-rule="evenodd" d="M119.229 226.036H202.625V214.135H131.14V202.24H119.229V214.135H107.307V226.036H119.229Z" fill="#383530"/>
<path fill-rule="evenodd" clip-rule="evenodd" d="M131.14 130.865H119.224V142.76H83.4894V95.1771H95.4009V83.2865H119.224V95.1771H131.14V130.865ZM119.229 154.656H143.052V142.76H131.14V130.87H166.88V142.76H154.963V154.656H178.792V166.552H154.963V178.448H143.052V190.344H226.437V178.448H262.177V154.656H274.088V83.2865H262.177V71.3958H250.265V47.6042H238.354V35.7083H202.614V23.8125H143.052V35.7083H107.318V47.6042H95.4009V59.5H83.4894V71.3958H71.578V118.974H59.6665V166.552H83.4894V154.656H107.318V166.552H119.229V154.656ZM178.797 142.76V95.1823H202.625V83.2865H214.536V95.1823H226.448V107.078H238.359V154.656H190.708V142.76H178.797Z" fill="#FFF9E9"/>
<mask id="mask1_319_191" style="mask-type:luminance" maskUnits="userSpaceOnUse" x="0" y="0" width="298" height="345">
<path d="M0 0H298V345H0V0Z" fill="white"/>
</mask>
<g mask="url(#mask1_319_191)">
<path fill-rule="evenodd" clip-rule="evenodd" d="M59.6563 118.969H47.7448V142.761H35.8333V130.865H23.9167V142.761H12.0052V166.547H23.9167V178.443H12.0052V190.339H0.09375V202.235H12.0052V214.125H23.9167V202.235H47.7448V214.125H35.8333V249.813H47.7448V261.709H35.8333V273.604H23.9167V285.495H12.0052V297.391H23.9167V309.287H47.7448V297.391H59.6563V321.182H71.5677V333.078H83.4792V344.969H107.307V333.078H178.781V344.969H250.255V333.078H262.167V321.182H285.99V309.287H297.906V273.604H285.99V237.917H274.078V178.443H285.99V71.3856H297.906V23.8075H285.99V11.9116H274.078V0.0209961H250.255V11.9116H238.344V23.8075H202.604V11.9116H143.042V23.8075H131.13V11.9116H119.219V0.0209961H71.5677V11.9116H59.6563V23.8075H47.7448V59.495H59.6563V118.969ZM107.307 333.104H83.4844V321.209H71.5729V285.526H83.4844V273.63H95.401V309.313H107.313V333.104H107.307ZM83.4792 273.62H71.5677V261.729H83.4792V273.62ZM71.5677 285.516H59.6563V273.62H71.5677V285.516ZM95.3958 190.344V202.24H83.4844V166.557H95.3958V190.344ZM95.3958 202.24H107.307V214.136H95.3958V202.24ZM107.307 202.24V178.453H119.224V166.557H143.047V178.453H131.135V190.344H119.224V202.24H107.307ZM47.7396 178.443V190.339H23.9167V178.443H47.7396ZM59.651 178.443H47.7396V166.552H59.651V178.443ZM71.5625 202.24H83.4792V237.927H71.5625V249.818H47.7396V214.136H71.5625V202.24ZM47.7344 166.552H23.9115V142.761H35.8229V154.656H47.7344V166.552ZM23.9063 202.24H11.9948V190.344H23.9063V202.24ZM166.87 166.552H178.786V154.656H154.958V142.761H166.87V130.87H131.135V142.761H143.047V154.656H119.224V166.552H107.307V154.656H83.4844V166.552H59.6615V118.974H71.5729V71.396H83.4844V59.5002H95.401V47.6043H107.313V35.7085H143.047V23.8127H202.609V35.7085H238.349V47.6043H250.26V71.396H262.172V83.2866H274.083V178.448H262.172V190.344H226.438V202.235H131.135V190.344H143.047V178.448H154.964V166.552H166.87ZM190.698 273.62H178.786V261.724H166.875V249.828H178.786V237.932H202.615V226.037H214.526V214.146H226.438V202.25H262.177V249.828H250.26V261.724H226.438V273.62H190.698ZM166.87 273.62V285.511H178.786V297.406H166.87V321.198H119.224V309.302H107.307V214.146H119.224V202.25H131.135V214.146H202.609V226.037H178.786V237.932H166.87V249.828H154.958V273.62H166.87ZM274.094 309.307V285.516H286.01V309.307H274.094ZM274.094 285.511H262.182V273.62H250.271V261.724H262.182V249.828H274.094V285.511ZM214.526 297.406H202.615V285.511H214.526V297.406ZM202.615 297.406V309.302H214.526V297.406H226.438V321.193H214.526V333.089H178.786V297.406H202.615ZM226.443 333.094V321.203H238.354V297.412H226.443V273.62H250.266V285.516H262.177V321.203H250.266V333.094H226.443ZM95.3906 249.818H83.4792V237.922H95.3906V249.818ZM59.6458 273.61H47.7344V261.719H59.6458V273.61ZM47.7344 285.505V297.401H23.9115V285.505H35.8229V273.61H47.7344V285.505ZM238.359 35.6825V23.7866H250.271V11.896H274.094V23.7866H286.01V71.37H262.182V47.5783H250.271V35.6825H238.359ZM71.5625 59.4793H59.651V23.7918H71.5625V11.896H119.214V23.7918H107.302V35.6877H95.3906V47.5835H83.4792V59.4793H71.5625Z" fill="black"/>
</g>
<path fill-rule="evenodd" clip-rule="evenodd" d="M95.396 118.969V130.865H119.224V107.073H95.396V118.969ZM214.542 130.865V118.969H202.625V107.073H190.714V142.76H214.542V130.865Z" fill="black"/>
<path fill-rule="evenodd" clip-rule="evenodd" d="M250.281 35.6927V47.5885H262.193V59.4792H274.104V35.6927H250.281ZM95.3958 35.6927H107.307V23.7969H83.4844V47.5885H95.3958V35.6927Z" fill="black"/>
<path fill-rule="evenodd" clip-rule="evenodd" d="M95.396 130.865V107.073H119.224V130.865H95.396ZM190.708 130.865V107.073H202.625V118.969H214.537V142.76H190.708V130.865ZM178.797 118.969V142.76H190.708V154.651H238.36V107.073H226.448V95.1771H214.537V83.2812H202.625V95.1771H178.797V118.969ZM107.318 142.76H119.229V130.87H131.141V95.1823H119.229V83.2865H95.4012V95.1823H83.4897V142.76H107.318Z" fill="#383530"/>
<path fill-rule="evenodd" clip-rule="evenodd" d="M131.141 190.344V202.24H226.453V190.344H262.193V178.443H274.104V154.656H262.193V178.443H226.453V190.344H131.141Z" fill="#DED6C1"/>
<path fill-rule="evenodd" clip-rule="evenodd" d="M119.229 297.411H107.307V309.307H119.229V321.203H166.88V309.307H119.229V297.411Z" fill="#DED6C1"/>
<path fill-rule="evenodd" clip-rule="evenodd" d="M250.281 261.724V273.62H262.193V285.516H274.104V249.828H262.193V261.724H250.281Z" fill="#DED6C1"/>
<path fill-rule="evenodd" clip-rule="evenodd" d="M274.104 285.516H286.021V309.307H274.104V285.516Z" fill="#383530"/>
<path fill-rule="evenodd" clip-rule="evenodd" d="M262.193 309.307V285.516H250.281V273.62H226.453V297.412H238.365V321.203H226.453V333.099H250.281V321.203H262.193V309.307Z" fill="#383530"/>
<path fill-rule="evenodd" clip-rule="evenodd" d="M226.453 321.203V297.411H214.542V309.307H202.625V297.411H178.797V333.099H214.542V321.203H226.453Z" fill="#383530"/>
<path fill-rule="evenodd" clip-rule="evenodd" d="M202.625 285.516H214.542V297.411H202.625V285.516Z" fill="#383530"/>
<path fill-rule="evenodd" clip-rule="evenodd" d="M226.453 261.724H250.281V249.828H262.193V202.24H226.453V214.135H214.542V226.036H202.625V237.927H178.797V249.828H166.88V261.724H178.797V273.62H226.453V261.724Z" fill="#383530"/>
<path fill-rule="evenodd" clip-rule="evenodd" d="M95.396 309.307V273.62H83.4845V285.516H71.5679V321.203H83.4845V333.099H107.307V309.307H95.396Z" fill="#383530"/>
<path fill-rule="evenodd" clip-rule="evenodd" d="M59.6561 249.828H71.5675V237.927H83.4842V202.24H71.5675V214.135H47.7446V249.828H59.6561Z" fill="#383530"/>
<path fill-rule="evenodd" clip-rule="evenodd" d="M83.4844 237.927H95.3958V249.828H83.4844V237.927Z" fill="#383530"/>
<path fill-rule="evenodd" clip-rule="evenodd" d="M95.3958 23.7968H119.229V11.8958H71.5677V23.7968H59.6562V59.4843H83.4844V23.7968H95.3958Z" fill="#383530"/>
<path fill-rule="evenodd" clip-rule="evenodd" d="M238.365 23.7968V35.6926H274.104V59.4843H262.193V71.3801H286.021V23.7968H274.104V11.8958H250.281V23.7968H238.365Z" fill="#383530"/>
<path fill-rule="evenodd" clip-rule="evenodd" d="M47.7446 273.62H35.828V285.516H23.9165V297.412H47.7446V273.62Z" fill="#608537"/>
<path fill-rule="evenodd" clip-rule="evenodd" d="M47.7446 261.724H59.6561V273.62H47.7446V261.724Z" fill="#608537"/>
<path fill-rule="evenodd" clip-rule="evenodd" d="M83.4844 190.344V202.24H95.3958V166.552H83.4844V190.344Z" fill="#608537"/>
<path fill-rule="evenodd" clip-rule="evenodd" d="M95.396 202.24H107.307V214.135H95.396V202.24Z" fill="#608537"/>
<path fill-rule="evenodd" clip-rule="evenodd" d="M107.307 190.344V202.24H119.229V190.344H131.14V178.443H143.052V166.552H119.229V178.443H107.307V190.344Z" fill="#608537"/>
<path fill-rule="evenodd" clip-rule="evenodd" d="M23.9165 178.443H47.7446V190.344H23.9165V178.443Z" fill="#608537"/>
<path fill-rule="evenodd" clip-rule="evenodd" d="M12 190.344H23.9167V202.24H12V190.344Z" fill="#608537"/>
<path fill-rule="evenodd" clip-rule="evenodd" d="M47.7446 166.552H59.6561V178.443H47.7446V166.552Z" fill="#608537"/>
<path fill-rule="evenodd" clip-rule="evenodd" d="M35.828 166.552H47.7446V154.656H35.828V142.755H23.9165V166.552H35.828Z" fill="#608537"/>
<path fill-rule="evenodd" clip-rule="evenodd" d="M107.307 237.927V297.411H119.229V309.307H166.88V297.411H178.797V285.516H166.88V273.62H154.969V249.828H166.88V237.927H178.797V226.036H107.307V237.927Z" fill="#FFF9E9"/>
<path fill-rule="evenodd" clip-rule="evenodd" d="M119.229 226.036H202.625V214.135H131.14V202.24H119.229V214.135H107.307V226.036H119.229Z" fill="#383530"/>
<path fill-rule="evenodd" clip-rule="evenodd" d="M131.14 130.865H119.224V142.76H83.4894V95.1771H95.4009V83.2865H119.224V95.1771H131.14V130.865ZM119.229 154.656H143.052V142.76H131.14V130.87H166.88V142.76H154.963V154.656H178.792V166.552H154.963V178.448H143.052V190.344H226.437V178.448H262.177V154.656H274.088V83.2865H262.177V71.3958H250.265V47.6042H238.354V35.7083H202.614V23.8125H143.052V35.7083H107.318V47.6042H95.4009V59.5H83.4894V71.3958H71.578V118.974H59.6665V166.552H83.4894V154.656H107.318V166.552H119.229V154.656ZM178.797 142.76V95.1823H202.625V83.2865H214.536V95.1823H226.448V107.078H238.359V154.656H190.708V142.76H178.797Z" fill="#FFF9E9"/>
</svg>
