<svg width="34" height="33" viewBox="0 0 34 33" fill="none" xmlns="http://www.w3.org/2000/svg">
<mask id="mask0_5_3234" style="mask-type:luminance" maskUnits="userSpaceOnUse" x="0" y="0" width="34" height="33">
<path d="M0 0H33.1012V33H0V0Z" fill="white"/>
</mask>
<g mask="url(#mask0_5_3234)">
<path d="M31.5235 12.5728V7.85627H29.9458V6.28725H28.3731V4.7185H26.7954V3.14474H25.2176V1.57572H20.4898V0.00195312H12.6065V1.57572H7.87831V3.14474H6.30059V4.7185H4.72788V6.28725H3.15016V7.85627H1.57271V12.5728H0V20.4269H1.57271V25.1434H3.15016V26.7122H4.72788V28.2812H6.30059V29.855H7.87831V31.4237H12.6065V32.9975H20.4898V31.4237H25.2176V29.855H26.7954V28.2812H28.3731V26.7122H29.9458V25.1434H31.5235V20.4269H33.1012V12.5728H31.5235Z" fill="#FF8800"/>
</g>
<mask id="mask1_5_3234" style="mask-type:luminance" maskUnits="userSpaceOnUse" x="31" y="12" width="3" height="9">
<path d="M31.5024 12.5442H33.1012V20.4399H31.5024V12.5442Z" fill="white"/>
</mask>
<g mask="url(#mask1_5_3234)">
<path d="M31.5234 12.573V20.4271H33.1012V12.573H31.5234Z" fill="#DE4E00"/>
</g>
<path d="M29.9458 22.0008V25.1435H31.5235V20.427H29.9458V22.0008Z" fill="#DE4E00"/>
<path d="M31.5235 9.43021V7.85645H29.9458V12.573H31.5235V9.43021Z" fill="#DE4E00"/>
<path d="M28.373 25.1436H29.9458V26.7123H28.373V25.1436Z" fill="#DE4E00"/>
<path d="M28.373 6.28735H29.9458V7.85637H28.373V6.28735Z" fill="#DE4E00"/>
<path d="M26.7953 26.7124H28.373V28.2814H26.7953V26.7124Z" fill="#DE4E00"/>
<path d="M26.7953 4.71875H28.373V6.2875H26.7953V4.71875Z" fill="#DE4E00"/>
<path d="M25.2177 28.2812H26.7954V29.855H25.2177V28.2812Z" fill="#DE4E00"/>
<path d="M25.2177 3.14478H26.7954V4.71854H25.2177V3.14478Z" fill="#DE4E00"/>
<path d="M23.6401 1.57593H25.2176V3.14495H23.6401V1.57593Z" fill="#DE4E00"/>
<path d="M22.0675 29.8552H20.4897V31.424H25.2176V29.8552H22.0675Z" fill="#DE4E00"/>
<mask id="mask2_5_3234" style="mask-type:luminance" maskUnits="userSpaceOnUse" x="12" y="31" width="9" height="2">
<path d="M12.5392 31.3726H20.5024V33.0001H12.5392V31.3726Z" fill="white"/>
</mask>
<g mask="url(#mask2_5_3234)">
<path d="M17.3343 31.4238H12.6064V32.9976H20.4898V31.4238H17.3343Z" fill="#DE4E00"/>
</g>
<path d="M20.4897 9.43021H22.0674V7.85645H18.912V9.43021H20.4897Z" fill="#DE4E00"/>
<path d="M17.3343 7.85637H18.912V6.28735H14.1838V7.85637H17.3343Z" fill="#DE4E00"/>
<path d="M14.1839 9.43021V7.85645H11.0337V9.43021H14.1839Z" fill="#DE4E00"/>
<path d="M9.45605 22.0007H11.0338V23.5698H9.45605V22.0007Z" fill="#DE4E00"/>
<path d="M9.45605 9.43018H11.0338V10.9989H9.45605V9.43018Z" fill="#DE4E00"/>
<path d="M7.8783 22.0007H9.45601V18.8582H7.8783V22.0007Z" fill="#DE4E00"/>
<path d="M7.8783 12.5731V14.1418H9.45601V10.999H7.8783V12.5731Z" fill="#DE4E00"/>
<path d="M6.30054 15.7156V18.8584H7.87825V14.1418H6.30054V15.7156Z" fill="#DE4E00"/>
<path d="M26.7953 7.85645H28.373V9.43021H26.7953V7.85645Z" fill="white"/>
<path d="M25.2177 9.43018H26.7954V10.9989H25.2177V9.43018Z" fill="white"/>
<path d="M23.6401 17.2844H25.2176V18.8582H23.6401V17.2844Z" fill="white"/>
<path d="M22.0675 20.427H23.6402V22.0008H22.0675V20.427Z" fill="white"/>
<path d="M20.4897 10.999H22.0675V12.5731H20.4897V10.999Z" fill="white"/>
<path d="M18.912 22.0007V23.5698H22.0674V22.0007H18.912Z" fill="white"/>
<path d="M18.912 12.573H20.4897V14.1418H18.912V12.573Z" fill="white"/>
<path d="M17.3344 14.1418H18.9121V15.7156H17.3344V14.1418Z" fill="white"/>
<path d="M15.7616 23.5698V25.1436H18.912V23.5698H15.7616Z" fill="white"/>
<path d="M15.7616 1.57593H12.6064V3.14495H15.7616V1.57593Z" fill="white"/>
<path d="M12.6064 18.8582H14.1839V20.4269H12.6064V18.8582Z" fill="white"/>
<path d="M9.45605 25.1436H11.0338V26.7123H9.45605V25.1436Z" fill="white"/>
<path d="M7.8783 26.7124H9.45601V28.2814H7.8783V26.7124Z" fill="white"/>
<path d="M6.30054 4.71875H7.87825V6.2875H6.30054V4.71875Z" fill="white"/>
<path d="M3.15015 7.85645H4.72786V9.43021H3.15015V7.85645Z" fill="white"/>
<path d="M12.6065 17.2845V15.7155H14.1839V14.1417H15.7617V12.573H17.3344V10.9989H18.9121V9.43018H14.1839V10.9989H11.0338V14.1417H9.45605V17.2845H12.6065Z" fill="#FFC400"/>
<path d="M22.0675 15.7156V18.8584H23.6402V14.1418H22.0675V15.7156Z" fill="#FFC400"/>
<path d="M18.912 18.8582H17.3343V20.4269H15.7616V22.0007H18.912V20.4269H22.0675V18.8582H18.912Z" fill="#FFC400"/>
<path d="M14.1838 22.0007H15.7616V23.5698H14.1838V22.0007Z" fill="#FFC400"/>
<path d="M28.373 10.999V12.5731H26.7953V18.8584H25.2176V22.0009H23.6401V23.5699H22.0674V25.1437H18.912V26.7124H12.6064V28.2814H11.0337V29.8552H12.6064V31.4239H17.3343V29.8552H22.0674V28.2814H26.7953V25.1437H28.373V22.0009H29.9457V10.999H28.373Z" fill="#FFC400"/>
<path d="M7.87823 20.4269V18.8582H6.30051V14.1416H7.87823V10.9988H9.45595V9.43008H11.0337V7.85631H14.1838V6.28729H18.912V7.85631H22.0674V9.43008H25.2176V7.85631H26.7953V6.28729H25.2176V4.71854H22.0674V3.14478H9.45595V4.71854H7.87823V6.28729H6.30051V7.85631H4.7278V12.5729H3.15009V15.7154H1.57263V17.2844H3.15009V23.5697H4.7278V26.7122H7.87823V25.1435H9.45595V22.0007H7.87823V20.4269Z" fill="#FFC400"/>
<path d="M29.9458 12.573V20.4271H31.5235V12.573H29.9458Z" fill="#FFEB52"/>
<path d="M28.373 23.5698V25.1435H29.9458V22.0007H28.373V23.5698Z" fill="#FFEB52"/>
<path d="M26.7953 25.1436H28.373V26.7123H26.7953V25.1436Z" fill="#FFEB52"/>
<path d="M26.7953 6.28735H28.373V7.85637H26.7953V6.28735Z" fill="#FFEB52"/>
<path d="M26.7954 12.573H28.3731V10.999H29.9458V7.85645H28.3731V9.43021H26.7954V10.999H25.2177V14.1417H26.7954V12.573Z" fill="#FFEB52"/>
<path d="M25.2177 7.85645H26.7954V9.43021H25.2177V7.85645Z" fill="#FFEB52"/>
<path d="M25.2177 4.71875H26.7954V6.2875H25.2177V4.71875Z" fill="#FFEB52"/>
<path d="M23.6401 15.7156V17.2846H25.2176V14.1418H23.6401V15.7156Z" fill="#FFEB52"/>
<path d="M23.6401 9.43018H25.2176V10.9989H23.6401V9.43018Z" fill="#FFEB52"/>
<path d="M23.6402 3.14478H22.0675V4.71854H25.2177V3.14478H23.6402Z" fill="#FFEB52"/>
<path d="M22.0675 28.2812V29.855H25.2177V28.2812H22.0675Z" fill="#FFEB52"/>
<path d="M22.0675 18.8582H23.6402V20.4269H22.0675V18.8582Z" fill="#FFEB52"/>
<path d="M23.6402 10.999H22.0675V12.5731H20.4898V14.1418H18.9121V15.7156H17.3344V14.1418H15.7617V15.7156H14.1839V17.2846H12.6065V18.8584H14.1839V20.4271H12.6065V18.8584H11.0338V20.4271H9.45605V22.0009H11.0338V23.5699H14.1839V22.0009H15.7617V20.4271H17.3344V18.8584H18.9121V17.2846H20.4898V15.7156H22.0675V14.1418H23.6402V10.999Z" fill="#FFEB52"/>
<path d="M22.0674 22.0008V20.427H18.912V22.0008H22.0674Z" fill="#FFEB52"/>
<path d="M20.4897 9.43018H22.0675V10.9989H20.4897V9.43018Z" fill="#FFEB52"/>
<path d="M18.912 10.999H20.4897V12.5731H18.912V10.999Z" fill="#FFEB52"/>
<path d="M17.3344 29.8552V31.424H20.4898V29.8552H17.3344Z" fill="#FFEB52"/>
<path d="M17.3344 12.573H18.9121V14.1418H17.3344V12.573Z" fill="#FFEB52"/>
<path d="M18.912 3.14495H20.4897V1.57593H15.7616V3.14495H18.912Z" fill="#FFEB52"/>
<path d="M17.3343 23.5698H18.912V22.0007H15.7616V23.5698H17.3343Z" fill="#FFEB52"/>
<path d="M14.1838 23.5698H15.7616V25.1436H14.1838V23.5698Z" fill="#FFEB52"/>
<path d="M11.0337 25.1436V26.7123H9.45601V28.2813H7.8783V29.8551H11.0337V28.2813H12.6064V26.7123H14.1839V25.1436H11.0337Z" fill="#FFEB52"/>
<path d="M9.45605 23.5698H11.0338V25.1436H9.45605V23.5698Z" fill="#FFEB52"/>
<path d="M7.8783 25.1436H9.45601V26.7123H7.8783V25.1436Z" fill="#FFEB52"/>
<path d="M7.8783 3.14478H9.45601V4.71854H7.8783V3.14478Z" fill="#FFEB52"/>
<path d="M6.30054 26.7124H7.87825V28.2814H6.30054V26.7124Z" fill="#FFEB52"/>
<path d="M4.72791 6.28735H6.30061V7.85637H4.72791V6.28735Z" fill="#FFEB52"/>
<path d="M3.15015 23.5698H4.72786V25.1436H3.15015V23.5698Z" fill="#FFEB52"/>
<path d="M3.15015 10.9989V12.573H4.72786V9.43018H3.15015V10.9989Z" fill="#FFEB52"/>
<path d="M3.15009 18.8582V17.2844H1.57263V20.4269H3.15009V18.8582Z" fill="#FFEB52"/>
<path d="M1.57263 14.1418V15.7155H3.15009V12.573H1.57263V14.1418Z" fill="#FFEB52"/>
<path d="M18.912 23.5698V25.1436H22.0674V23.5698H18.912Z" fill="#FF8800"/>
<path d="M12.6064 23.5698H11.0337V25.1436H14.1839V23.5698H12.6064Z" fill="#FF8800"/>
<path d="M11.0337 20.4271V18.8584H12.6064V17.2846H9.45601V14.1418H7.8783V18.8584H9.45601V20.4271H11.0337Z" fill="#FF8800"/>
<path d="M9.45601 29.8552H7.8783V31.424H12.6064V29.8552H9.45601Z" fill="#FF8800"/>
<path d="M6.30054 28.2812H7.87825V29.855H6.30054V28.2812Z" fill="#FF8800"/>
<path d="M3.15015 25.1436H4.72786V26.7123H3.15015V25.1436Z" fill="#FF8800"/>
<path d="M3.15009 22.0008V20.427H1.57263V25.1435H3.15009V22.0008Z" fill="#FF8800"/>
<path d="M22.0674 18.8584V15.7156H20.4897V17.2846H18.912V18.8584H22.0674Z" fill="#FF8800"/>
<path d="M18.912 9.43018H20.4897V10.9989H18.912V9.43018Z" fill="#FF8800"/>
<path d="M17.3344 10.999H18.9121V12.5731H17.3344V10.999Z" fill="#FF8800"/>
<path d="M15.7616 12.573H17.3343V14.1418H15.7616V12.573Z" fill="#FF8800"/>
<path d="M14.1838 14.1418H15.7616V15.7156H14.1838V14.1418Z" fill="#FF8800"/>
<path d="M12.6064 15.7156H14.1839V17.2846H12.6064V15.7156Z" fill="#FF8800"/>
<path d="M25.2177 14.1418V18.8584H26.7954V14.1418H25.2177Z" fill="#FF8800"/>
<path d="M23.6401 20.4269V22.0007H25.2176V18.8582H23.6401V20.4269Z" fill="#FF8800"/>
<path d="M25.2176 10.999H23.6401V14.1418H25.2176V10.999Z" fill="#FF8800"/>
<path d="M22.0675 22.0007H23.6402V23.5698H22.0675V22.0007Z" fill="#FF8800"/>
<path d="M22.0675 9.43018H23.6402V10.9989H22.0675V9.43018Z" fill="#FF8800"/>
<path d="M22.0675 3.14495H23.6402V1.57593H20.4897V3.14495H22.0675Z" fill="#FF8800"/>
<path d="M15.7616 25.1436H14.1838V26.7123H18.912V25.1436H15.7616Z" fill="#FF8800"/>
<path d="M17.3343 9.43021H18.912V7.85645H14.1838V9.43021H17.3343Z" fill="#FF8800"/>
<mask id="mask3_5_3234" style="mask-type:luminance" maskUnits="userSpaceOnUse" x="12" y="0" width="9" height="2">
<path d="M12.5392 0H20.5024V1.61172H12.5392V0Z" fill="white"/>
</mask>
<g mask="url(#mask3_5_3234)">
<path d="M15.7616 1.57596H20.4898V0.00219727H12.6064V1.57596H15.7616Z" fill="#FF8800"/>
</g>
<path d="M14.1839 10.9989V9.43018H11.0337V10.9989H14.1839Z" fill="#FF8800"/>
<path d="M11.0338 12.5731V10.999H9.45605V14.1418H11.0338V12.5731Z" fill="#FF8800"/>
<path d="M11.0337 3.14495H12.6064V1.57593H7.8783V3.14495H11.0337Z" fill="#FF8800"/>
<path d="M6.30054 3.14478H7.87825V4.71854H6.30054V3.14478Z" fill="#FF8800"/>
<path d="M4.72791 26.7124H6.30061V28.2814H4.72791V26.7124Z" fill="#FF8800"/>
<path d="M4.72791 4.71875H6.30061V6.2875H4.72791V4.71875Z" fill="#FF8800"/>
<path d="M3.15015 6.28735H4.72786V7.85637H3.15015V6.28735Z" fill="#FF8800"/>
<path d="M3.15009 10.999V7.85645H1.57263V12.573H3.15009V10.999Z" fill="#FF8800"/>
<mask id="mask4_5_3234" style="mask-type:luminance" maskUnits="userSpaceOnUse" x="0" y="12" width="2" height="9">
<path d="M0 12.5442H1.60671V20.4399H0V12.5442Z" fill="white"/>
</mask>
<g mask="url(#mask4_5_3234)">
<path d="M1.57271 17.2845V12.573H0V20.4271H1.57271V17.2845Z" fill="#FF8800"/>
</g>
</svg>
